<svg width="288" height="310" viewBox="0 0 288 310" fill="none" xmlns="http://www.w3.org/2000/svg">
<path d="M0 50C0 22.3858 22.3858 0 50 0H82C87.5228 0 92 4.47715 92 10V98C92 103.523 87.5228 108 82 108H10C4.47715 108 0 103.523 0 98V50Z" fill="#A41F13"/>
<rect y="115" width="92" height="80" rx="7" fill="#A41F13"/>
<path d="M0 212C0 206.477 4.47715 202 10 202H82C87.5228 202 92 206.477 92 212V300C92 305.523 87.5228 310 82 310H50C22.3858 310 0 287.614 0 260V212Z" fill="#A41F13"/>
<rect x="98" y="202" width="92" height="108" rx="10" fill="#A41F13"/>
<path d="M196 212C196 206.477 200.477 202 206 202H278C283.523 202 288 206.477 288 212V260C288 287.614 265.614 310 238 310H206C200.477 310 196 305.523 196 300V212Z" fill="#A41F13"/>
<path d="M258 0C274.569 0 288 13.4315 288 30V195H96V140C96 140 131.5 192.045 188 168.5V157.971C142.708 169.966 107.795 126.322 96 108V0H258ZM200 24C172.938 24 151 45.938 151 73V76C151 103.062 172.938 125 200 125C227.062 125 249 103.062 249 76V73C249 45.938 227.062 24 200 24Z" fill="#A41F13"/>
</svg>
